<svg width="49" height="35" viewBox="0 0 49 35" fill="none" xmlns="http://www.w3.org/2000/svg">
<rect width="49" height="35" rx="2.69231" fill="white"/>
<mask id="mask0_2_553" style="mask-type:alpha" maskUnits="userSpaceOnUse" x="0" y="0" width="49" height="35">
<rect width="49" height="35" rx="2.69231" fill="white"/>
</mask>
<g mask="url(#mask0_2_553)">
<path fill-rule="evenodd" clip-rule="evenodd" d="M49 0H0V2.33333H49V0ZM49 4.66684H0V7.00018H49V4.66684ZM0 9.33303H49V11.6664H0V9.33303ZM49 13.9999H0V16.3332H49V13.9999ZM0 18.6667H49V21H0V18.6667ZM49 23.3336H0V25.6669H49V23.3336ZM0 27.9997H49V30.3331H0V27.9997ZM49 32.6666H0V34.9999H49V32.6666Z" fill="#D02F44"/>
<rect width="21" height="16.3333" fill="#46467F"/>
<g filter="url(#filter0_d_2_553)">
<path fill-rule="evenodd" clip-rule="evenodd" d="M9.33227 3.50016C9.33227 4.14449 8.80993 4.66683 8.1656 4.66683C7.52127 4.66683 6.99893 4.14449 6.99893 3.50016C6.99893 2.85583 7.52127 2.3335 8.1656 2.3335C8.80993 2.3335 9.33227 2.85583 9.33227 3.50016ZM4.66588 3.50024C4.66588 4.14457 4.14354 4.6669 3.49921 4.6669C2.85488 4.6669 2.33254 4.14457 2.33254 3.50024C2.33254 2.85591 2.85488 2.33357 3.49921 2.33357C4.14354 2.33357 4.66588 2.85591 4.66588 3.50024ZM12.8324 4.66683C13.4768 4.66683 13.9991 4.14449 13.9991 3.50016C13.9991 2.85583 13.4768 2.3335 12.8324 2.3335C12.1881 2.3335 11.6658 2.85583 11.6658 3.50016C11.6658 4.14449 12.1881 4.66683 12.8324 4.66683ZM18.666 3.50016C18.666 4.14449 18.1436 4.66683 17.4993 4.66683C16.855 4.66683 16.3326 4.14449 16.3326 3.50016C16.3326 2.85583 16.855 2.3335 17.4993 2.3335C18.1436 2.3335 18.666 2.85583 18.666 3.50016ZM5.83087 7.00025C6.4752 7.00025 6.99753 6.47792 6.99753 5.83358C6.99753 5.18925 6.4752 4.66692 5.83087 4.66692C5.18653 4.66692 4.6642 5.18925 4.6642 5.83358C4.6642 6.47792 5.18653 7.00025 5.83087 7.00025ZM11.6644 5.83358C11.6644 6.47792 11.142 7.00025 10.4977 7.00025C9.85337 7.00025 9.33104 6.47792 9.33104 5.83358C9.33104 5.18925 9.85337 4.66692 10.4977 4.66692C11.142 4.66692 11.6644 5.18925 11.6644 5.83358ZM15.1645 7.00025C15.8089 7.00025 16.3312 6.47792 16.3312 5.83358C16.3312 5.18925 15.8089 4.66692 15.1645 4.66692C14.5202 4.66692 13.9979 5.18925 13.9979 5.83358C13.9979 6.47792 14.5202 7.00025 15.1645 7.00025ZM18.666 8.167C18.666 8.81134 18.1436 9.33367 17.4993 9.33367C16.855 9.33367 16.3326 8.81134 16.3326 8.167C16.3326 7.52267 16.855 7.00034 17.4993 7.00034C18.1436 7.00034 18.666 7.52267 18.666 8.167ZM12.8324 9.33367C13.4768 9.33367 13.9991 8.81134 13.9991 8.167C13.9991 7.52267 13.4768 7.00034 12.8324 7.00034C12.1881 7.00034 11.6658 7.52267 11.6658 8.167C11.6658 8.81134 12.1881 9.33367 12.8324 9.33367ZM9.33227 8.167C9.33227 8.81134 8.80993 9.33367 8.1656 9.33367C7.52127 9.33367 6.99893 8.81134 6.99893 8.167C6.99893 7.52267 7.52127 7.00034 8.1656 7.00034C8.80993 7.00034 9.33227 7.52267 9.33227 8.167ZM3.49876 9.33367C4.14309 9.33367 4.66543 8.81134 4.66543 8.167C4.66543 7.52267 4.14309 7.00034 3.49876 7.00034C2.85443 7.00034 2.33209 7.52267 2.33209 8.167C2.33209 8.81134 2.85443 9.33367 3.49876 9.33367ZM6.99753 10.5004C6.99753 11.1448 6.4752 11.6671 5.83087 11.6671C5.18653 11.6671 4.6642 11.1448 4.6642 10.5004C4.6642 9.85609 5.18653 9.33376 5.83087 9.33376C6.4752 9.33376 6.99753 9.85609 6.99753 10.5004ZM10.4977 11.6671C11.142 11.6671 11.6644 11.1448 11.6644 10.5004C11.6644 9.85609 11.142 9.33376 10.4977 9.33376C9.85337 9.33376 9.33104 9.85609 9.33104 10.5004C9.33104 11.1448 9.85337 11.6671 10.4977 11.6671ZM16.3312 10.5004C16.3312 11.1448 15.8089 11.6671 15.1645 11.6671C14.5202 11.6671 13.9979 11.1448 13.9979 10.5004C13.9979 9.85609 14.5202 9.33376 15.1645 9.33376C15.8089 9.33376 16.3312 9.85609 16.3312 10.5004ZM17.4993 13.9999C18.1436 13.9999 18.666 13.4775 18.666 12.8332C18.666 12.1889 18.1436 11.6665 17.4993 11.6665C16.855 11.6665 16.3326 12.1889 16.3326 12.8332C16.3326 13.4775 16.855 13.9999 17.4993 13.9999ZM13.9991 12.8332C13.9991 13.4775 13.4768 13.9999 12.8324 13.9999C12.1881 13.9999 11.6658 13.4775 11.6658 12.8332C11.6658 12.1889 12.1881 11.6665 12.8324 11.6665C13.4768 11.6665 13.9991 12.1889 13.9991 12.8332ZM8.1656 13.9999C8.80993 13.9999 9.33227 13.4775 9.33227 12.8332C9.33227 12.1889 8.80993 11.6665 8.1656 11.6665C7.52127 11.6665 6.99893 12.1889 6.99893 12.8332C6.99893 13.4775 7.52127 13.9999 8.1656 13.9999ZM4.66543 12.8332C4.66543 13.4775 4.14309 13.9999 3.49876 13.9999C2.85443 13.9999 2.33209 13.4775 2.33209 12.8332C2.33209 12.1889 2.85443 11.6665 3.49876 11.6665C4.14309 11.6665 4.66543 12.1889 4.66543 12.8332Z" fill="url(#paint0_linear_2_553)"/>
</g>
</g>
<defs>
<filter id="filter0_d_2_553" x="2.33209" y="2.3335" width="16.3339" height="13.0124" filterUnits="userSpaceOnUse" color-interpolation-filters="sRGB">
<feFlood flood-opacity="0" result="BackgroundImageFix"/>
<feColorMatrix in="SourceAlpha" type="matrix" values="0 0 0 0 0 0 0 0 0 0 0 0 0 0 0 0 0 0 127 0" result="hardAlpha"/>
<feOffset dy="1.34615"/>
<feColorMatrix type="matrix" values="0 0 0 0 0 0 0 0 0 0 0 0 0 0 0 0 0 0 0.06 0"/>
<feBlend mode="normal" in2="BackgroundImageFix" result="effect1_dropShadow_2_553"/>
<feBlend mode="normal" in="SourceGraphic" in2="effect1_dropShadow_2_553" result="shape"/>
</filter>
<linearGradient id="paint0_linear_2_553" x1="2.33209" y1="2.3335" x2="2.33209" y2="13.9999" gradientUnits="userSpaceOnUse">
<stop stop-color="white"/>
<stop offset="1" stop-color="#F0F0F0"/>
</linearGradient>
</defs>
</svg>
