<svg width="49" height="35" viewBox="0 0 49 35" fill="none" xmlns="http://www.w3.org/2000/svg">
<rect x="0.336538" y="0.336538" width="48.3269" height="34.3269" rx="2.35577" fill="white" stroke="#F5F5F5" stroke-width="0.673077"/>
<mask id="mask0_2_615" style="mask-type:alpha" maskUnits="userSpaceOnUse" x="0" y="0" width="49" height="35">
<rect x="0.336538" y="0.336538" width="48.3269" height="34.3269" rx="2.35577" fill="white" stroke="white" stroke-width="0.673077"/>
</mask>
<g mask="url(#mask0_2_615)">
<path fill-rule="evenodd" clip-rule="evenodd" d="M0 11.6667H49V0H0V11.6667Z" fill="#38BB56"/>
<path fill-rule="evenodd" clip-rule="evenodd" d="M0 35.0002H49V23.3335H0V35.0002Z" fill="#DE1B27"/>
<path fill-rule="evenodd" clip-rule="evenodd" d="M2.78081 9.33301C2.53299 9.33301 2.33209 9.53391 2.33209 9.78173V11.2176C2.33209 11.4654 2.53299 11.6663 2.78081 11.6663H4.21671C4.46453 11.6663 4.66543 11.4654 4.66543 11.2176V9.78173C4.66543 9.53391 4.46453 9.33301 4.21671 9.33301H2.78081ZM7.44765 9.33301C7.19983 9.33301 6.99893 9.53391 6.99893 9.78173V11.2176C6.99893 11.4654 7.19983 11.6663 7.44765 11.6663H8.88355C9.13137 11.6663 9.33227 11.4654 9.33227 11.2176V9.78173C9.33227 9.53391 9.13137 9.33301 8.88355 9.33301H7.44765ZM11.6658 9.78173C11.6658 9.53391 11.8667 9.33301 12.1145 9.33301H13.5504C13.7982 9.33301 13.9991 9.53391 13.9991 9.78173V11.2176C13.9991 11.4654 13.7982 11.6663 13.5504 11.6663H12.1145C11.8667 11.6663 11.6658 11.4654 11.6658 11.2176V9.78173ZM16.7813 9.33301C16.5335 9.33301 16.3326 9.53391 16.3326 9.78173V11.2176C16.3326 11.4654 16.5335 11.6663 16.7813 11.6663H18.2172C18.4651 11.6663 18.666 11.4654 18.666 11.2176V9.78173C18.666 9.53391 18.4651 9.33301 18.2172 9.33301H16.7813ZM20.9995 9.78173C20.9995 9.53391 21.2004 9.33301 21.4482 9.33301H22.8841C23.1319 9.33301 23.3328 9.53391 23.3328 9.78173V11.2176C23.3328 11.4654 23.1319 11.6663 22.8841 11.6663H21.4482C21.2004 11.6663 20.9995 11.4654 20.9995 11.2176V9.78173ZM26.115 9.33301C25.8672 9.33301 25.6663 9.53391 25.6663 9.78173V11.2176C25.6663 11.4654 25.8672 11.6663 26.115 11.6663H27.5509C27.7987 11.6663 27.9996 11.4654 27.9996 11.2176V9.78173C27.9996 9.53391 27.7987 9.33301 27.5509 9.33301H26.115ZM30.3331 9.78173C30.3331 9.53391 30.534 9.33301 30.7819 9.33301H32.2178C32.4656 9.33301 32.6665 9.53391 32.6665 9.78173V11.2176C32.6665 11.4654 32.4656 11.6663 32.2178 11.6663H30.7819C30.534 11.6663 30.3331 11.4654 30.3331 11.2176V9.78173ZM35.4487 9.33301C35.2009 9.33301 35 9.53391 35 9.78173V11.2176C35 11.4654 35.2009 11.6663 35.4487 11.6663H36.8846C37.1324 11.6663 37.3333 11.4654 37.3333 11.2176V9.78173C37.3333 9.53391 37.1324 9.33301 36.8846 9.33301H35.4487ZM39.6642 9.78173C39.6642 9.53391 39.8651 9.33301 40.1129 9.33301H41.5488C41.7966 9.33301 41.9975 9.53391 41.9975 9.78173V11.2176C41.9975 11.4654 41.7966 11.6663 41.5488 11.6663H40.1129C39.8651 11.6663 39.6642 11.4654 39.6642 11.2176V9.78173ZM44.7798 9.33301C44.5319 9.33301 44.331 9.53391 44.331 9.78173V11.2176C44.331 11.4654 44.5319 11.6663 44.7798 11.6663H46.2157C46.4635 11.6663 46.6644 11.4654 46.6644 11.2176V9.78173C46.6644 9.53391 46.4635 9.33301 46.2157 9.33301H44.7798ZM2.33209 23.7816C2.33209 23.5338 2.53299 23.3329 2.78081 23.3329H4.21671C4.46453 23.3329 4.66543 23.5338 4.66543 23.7816V25.2175C4.66543 25.4653 4.46453 25.6662 4.21671 25.6662H2.78081C2.53299 25.6662 2.33209 25.4653 2.33209 25.2175V23.7816ZM7.44765 23.3329C7.19983 23.3329 6.99893 23.5338 6.99893 23.7816V25.2175C6.99893 25.4653 7.19983 25.6662 7.44765 25.6662H8.88355C9.13137 25.6662 9.33227 25.4653 9.33227 25.2175V23.7816C9.33227 23.5338 9.13137 23.3329 8.88355 23.3329H7.44765ZM11.6658 23.7816C11.6658 23.5338 11.8667 23.3329 12.1145 23.3329H13.5504C13.7982 23.3329 13.9991 23.5338 13.9991 23.7816V25.2175C13.9991 25.4653 13.7982 25.6662 13.5504 25.6662H12.1145C11.8667 25.6662 11.6658 25.4653 11.6658 25.2175V23.7816ZM16.7813 23.3329C16.5335 23.3329 16.3326 23.5338 16.3326 23.7816V25.2175C16.3326 25.4653 16.5335 25.6662 16.7813 25.6662H18.2172C18.4651 25.6662 18.666 25.4653 18.666 25.2175V23.7816C18.666 23.5338 18.4651 23.3329 18.2172 23.3329H16.7813ZM20.9995 23.7816C20.9995 23.5338 21.2004 23.3329 21.4482 23.3329H22.8841C23.1319 23.3329 23.3328 23.5338 23.3328 23.7816V25.2175C23.3328 25.4653 23.1319 25.6662 22.8841 25.6662H21.4482C21.2004 25.6662 20.9995 25.4653 20.9995 25.2175V23.7816ZM26.115 23.3329C25.8672 23.3329 25.6663 23.5338 25.6663 23.7816V25.2175C25.6663 25.4653 25.8672 25.6662 26.115 25.6662H27.5509C27.7987 25.6662 27.9996 25.4653 27.9996 25.2175V23.7816C27.9996 23.5338 27.7987 23.3329 27.5509 23.3329H26.115ZM30.3331 23.7816C30.3331 23.5338 30.534 23.3329 30.7819 23.3329H32.2178C32.4656 23.3329 32.6665 23.5338 32.6665 23.7816V25.2175C32.6665 25.4653 32.4656 25.6662 32.2178 25.6662H30.7819C30.534 25.6662 30.3331 25.4653 30.3331 25.2175V23.7816ZM35.4487 23.3329C35.2009 23.3329 35 23.5338 35 23.7816V25.2175C35 25.4653 35.2009 25.6662 35.4487 25.6662H36.8846C37.1324 25.6662 37.3333 25.4653 37.3333 25.2175V23.7816C37.3333 23.5338 37.1324 23.3329 36.8846 23.3329H35.4487ZM39.6642 23.7816C39.6642 23.5338 39.8651 23.3329 40.1129 23.3329H41.5488C41.7966 23.3329 41.9975 23.5338 41.9975 23.7816V25.2175C41.9975 25.4653 41.7966 25.6662 41.5488 25.6662H40.1129C39.8651 25.6662 39.6642 25.4653 39.6642 25.2175V23.7816ZM44.7798 23.3329C44.5319 23.3329 44.331 23.5338 44.331 23.7816V25.2175C44.331 25.4653 44.5319 25.6662 44.7798 25.6662H46.2157C46.4635 25.6662 46.6644 25.4653 46.6644 25.2175V23.7816C46.6644 23.5338 46.4635 23.3329 46.2157 23.3329H44.7798Z" fill="white" fill-opacity="0.5"/>
<mask id="path-6-inside-1_2_615" fill="white">
<path fill-rule="evenodd" clip-rule="evenodd" d="M22.1431 14.9121C21.4404 15.5522 20.9995 16.4747 20.9995 17.5001C20.9995 19.4331 22.5665 21.0001 24.4995 21.0001C26.4324 21.0001 27.9995 19.4331 27.9995 17.5001C27.9995 16.494 27.575 15.5871 26.8953 14.9487"/>
</mask>
<path d="M21.5387 14.2487C20.6572 15.0517 20.102 16.2117 20.102 17.5001H21.8969C21.8969 16.7376 22.2236 16.0528 22.7475 15.5755L21.5387 14.2487ZM20.102 17.5001C20.102 19.9287 22.0708 21.8975 24.4995 21.8975V20.1027C23.0621 20.1027 21.8969 18.9375 21.8969 17.5001H20.102ZM24.4995 21.8975C26.9281 21.8975 28.8969 19.9287 28.8969 17.5001H27.102C27.102 18.9375 25.9368 20.1027 24.4995 20.1027V21.8975ZM28.8969 17.5001C28.8969 16.2361 28.3624 15.0955 27.5098 14.2946L26.2809 15.6028C26.7875 16.0787 27.102 16.7519 27.102 17.5001H28.8969Z" fill="#D80915" mask="url(#path-6-inside-1_2_615)"/>
<rect x="23.3342" y="16.3333" width="2.33333" height="4.66667" rx="0.897436" fill="#D80915"/>
</g>
</svg>
